<svg viewBox="0 0 120 60" xmlns="http://www.w3.org/2000/svg">
    <title>MLB</title>
    <path fill="white"
        d="M110.015-.0045a9.94 9.2193 0 019.95 8.4728l.035.8205v41.3987a10.035 9.3078 0 01-9.24 9.2843l-.75.028h-100a10.015 9.2888 0 01-7.1-2.7176 9.895 9.1773 0 01-2.875-5.7732l-.035-.826v-41.3897a9.97 9.2473 0 012.915-6.6182 10.08 9.3493 0 016.21-2.6436l.88-.0325h100.01zm-37.5 3.2596h-62.51a6.56 6.0847 0 00-4.63 1.7391 6.495 6.0237 0 00-1.87 4.2941v41.3987a6.41 5.9452 0 001.87 4.2756c1.23 1.1355 2.895 1.7761 4.63 1.7806h40.58a461.375 427.9243 0 00-2.475-3.9091h-4.81c0-11.1393 4.06-17.2975 8.92-18.5266.665-.111.35-3.1536-.5-4.0811h-2.805c-.45 0-.19-.7835-.19-.7835l2.28-4.5076-.31-1.2335h-8.42l6.915-4.4841c.32-11.8254 13.4-12.7439 21.275-7.8187 4.685 2.8751 5.04 8.5748 4.685 12.5119-.06.2505-1.22.0835-1.22.0835s-.8 4.3451 1.285 4.3451h9.19c3.745-.139 7.36 2.2166 7.36 2.2166l.88-2.9821-20.13-24.3192zm37.5 0h-27.95l16.035 24.8572 1.48.1765.935 1.1355v1.062l1.01.19.94 1.1825v1.0245l1.05.1715 1.055 1.0665v2.3651c1.26 1.0575 2.68 1.9386 4.215 2.6106 1.415.5005 1.575 2.6061 2.43 3.7241 1.065 1.6325 2.525 2.2861 2.22 3.2001-.715 2.4391-3.41 6.5572-5.92 6.7522h-9.93v3.9416h12.44a6.5 6.0287 0 006.47-6.0797v-41.3472h-.01a6.425 5.9597 0 00-6.47-6.0287zm-89.905 37.8936a4.44 4.1181 0 01-3.19 7.0167 4.395 4.0761 0 01-4.4-4.1181 4.44 4.1181 0 017.59-2.8986Z" />
</svg>