<svg version="1.0" xmlns="http://www.w3.org/2000/svg" width="500.000000pt" height="500.000000pt"
  viewBox="0 0 500.000000 500.000000" preserveAspectRatio="xMidYMid meet">

  <g transform="translate(0.000000,500.000000) scale(0.100000,-0.100000)" fill="#000000" stroke="none">
    <path d="M1603 4009 l-83 -50 0 -1000 0 -999 858 2 857 3 3 88 3 87 119 0 120
0 -37 48 c-45 59 -78 132 -105 236 -21 79 -22 102 -25 859 l-4 777 -812 0
-812 -1 -82 -50z m101 -1624 c22 -99 60 -177 103 -216 l34 -29 639 0 640 0 0
-30 0 -30 -745 0 -745 0 0 908 0 909 23 10 22 10 5 -726 c5 -651 8 -734 24
-806z m396 1110 l0 -155 -150 0 -150 0 0 155 0 155 150 0 150 0 0 -155z m380
0 l0 -155 -165 0 -165 0 0 155 0 155 165 0 165 0 0 -155z m380 0 l0 -155 -165
0 -165 0 0 155 0 155 165 0 165 0 0 -155z m340 0 l0 -155 -150 0 -150 0 0 155
0 155 150 0 150 0 0 -155z m-1100 -365 l0 -160 -150 0 -150 0 0 160 0 160 150
0 150 0 0 -160z m380 0 l0 -160 -165 0 -165 0 0 160 0 160 165 0 165 0 0 -160z
m375 0 l0 -155 -162 -3 -163 -2 0 160 0 160 163 -2 162 -3 0 -155z m345 0 l0
-161 -147 3 -148 3 -3 145 c-1 79 0 150 2 157 4 10 41 13 151 13 l145 0 0
-160z m-1100 -365 l0 -155 -150 0 -150 0 0 155 0 155 150 0 150 0 0 -155z
m380 0 l0 -155 -165 0 -165 0 0 155 0 155 165 0 165 0 0 -155z m380 0 l0 -155
-165 0 -165 0 0 155 0 155 165 0 165 0 0 -155z m340 0 l0 -155 -144 0 c-171 0
-156 -17 -156 178 l0 132 150 0 150 0 0 -155z m-1090 -238 c0 -46 34 -177 60
-226 l20 -41 -160 0 -161 0 -24 53 c-24 52 -45 152 -45 215 l0 32 155 0 155 0
0 -33z m374 17 c3 -9 6 -28 6 -43 0 -39 38 -171 60 -208 l19 -33 -159 0 -159
0 -27 45 c-31 54 -52 119 -63 198 l-8 57 163 0 c138 0 163 -2 168 -16z m389
-76 c10 -51 29 -117 42 -147 14 -29 25 -55 25 -57 0 -2 -69 -4 -154 -4 l-155
0 -19 28 c-35 49 -58 119 -77 235 l-6 37 163 0 164 0 17 -92z m336 -4 c7 -53
21 -120 31 -150 l18 -55 -126 3 -126 3 -23 34 c-27 40 -58 134 -68 209 l-7 52
144 0 145 0 12 -96z" />
    <path d="M1053 1691 c-48 -22 -66 -50 -66 -103 0 -65 23 -88 136 -128 48 -18
57 -25 57 -46 0 -47 -65 -52 -99 -8 -15 19 -28 24 -65 24 -52 0 -57 -10 -31
-60 42 -81 217 -93 279 -19 60 71 16 160 -93 193 -62 18 -81 31 -81 57 0 42
76 41 87 -1 4 -17 14 -20 54 -20 57 0 62 13 29 68 -37 60 -127 79 -207 43z" />
    <path d="M1445 1692 c-57 -27 -91 -72 -105 -136 -13 -66 -6 -117 26 -173 73
-127 297 -100 328 40 6 27 6 27 -43 27 -45 0 -51 -3 -63 -27 -18 -38 -58 -56
-93 -43 -73 28 -74 222 0 250 33 13 80 -5 93 -35 10 -22 18 -25 62 -25 48 0
51 1 45 23 -9 30 -36 67 -67 90 -38 28 -132 33 -183 9z" />
    <path d="M1760 1505 l0 -195 50 0 50 0 0 75 0 75 80 0 80 0 0 -75 0 -75 50 0
50 0 0 195 0 195 -50 0 -50 0 0 -80 0 -80 -80 0 -80 0 0 80 0 80 -50 0 -50 0
0 -195z" />
    <path d="M2190 1505 l0 -195 150 0 150 0 0 40 0 40 -95 0 -95 0 0 40 0 40 85
0 85 0 0 40 0 40 -85 0 -85 0 0 35 0 34 93 3 92 3 3 38 3 37 -150 0 -151 0 0
-195z" />
    <path d="M2550 1505 l0 -195 103 0 c148 1 201 24 238 105 22 48 24 133 5 179
-33 79 -96 106 -250 106 l-96 0 0 -195z m217 100 c13 -9 28 -33 34 -54 26 -86
-19 -161 -97 -161 l-44 0 0 115 0 115 43 0 c23 0 52 -7 64 -15z" />
    <path d="M2970 1558 c0 -158 10 -193 63 -232 38 -28 165 -30 214 -3 55 30 63
58 63 227 l0 150 -50 0 -50 0 0 -143 c0 -164 -5 -178 -64 -180 -29 -1 -43 5
-57 22 -17 20 -19 41 -19 162 l0 139 -50 0 -50 0 0 -142z" />
    <path d="M3380 1505 l0 -195 150 0 150 0 0 40 0 39 -97 3 -98 3 -3 153 -3 152
-49 0 -50 0 0 -195z" />
    <path d="M3740 1505 l0 -195 145 0 145 0 0 40 0 40 -95 0 -95 0 0 40 0 40 90
0 90 0 0 40 0 40 -90 0 -90 0 0 35 0 35 95 0 95 0 0 40 0 40 -145 0 -145 0 0
-195z" />
  </g>
</svg>