<svg viewBox="0 0 64 64" xmlns="http://www.w3.org/2000/svg">
  <path fill="white"
    d="M21 34a1 1 0 012 0v9h-2zm20 0a1 1 0 012 0v9h-2zm19 9h-12v-12a6 6 0 00-6-6h-20a6 6 0 00-6 6v12h-12c-2.5 0-4 1.5-4 4v13c0 2.5 1.5 4 4 4h56c2.5 0 4-1.5 4-4v-13c0-2.5-1.5-4-4-4zm0-21h-15c-2.5 0-4 1.5-4 2h2a7 7 0 016 6v12h10v-13a.75.75 0 011.5 0v13h3.5v-16c0-2.5-1.5-4-4-4zm-56 0h15c2.5 0 4 1.5 4 2h-2a7 7 0 00-6 6v12h-10v-13a.75.75 0 00-1.5 0v13h-3.5v-16c0-2.5 1.5-4 4-4zm1.25 25h14v2.5h-5.75v11.5h-2.5v-11.5h-5.75v-2.5zm29.302 7 1.198-3 1.198 3h-2.396zm-14.802 7v-14h9v2.5h-6.5v3.25h6.5v2.5h-6.5v3.25h6.5v2.5l6-14h2l6 14 1-14h3l4 10 4-10h3l1 14h-2.5l-1.014-8.001-3.486 8.001h-2l-3.491-8.001-1.001 8.011h-5.508l-2-5.01h-4l-2 5h-12zm-8.25-55a7 7 0 110 14 7 7 0 110-14zm41 0a7 7 0 110 14 7 7 0 110-14zm-20.5-4a10 10 0 110 20 10 10 0 110-20Z" />
</svg>